<svg xmlns="http://www.w3.org/2000/svg" viewBox="0 0 24 24" fill="none" stroke="#000000" stroke-linecap="round" stroke-linejoin="round" id="Brand-Google-Big-Query--Streamline-Tabler" height="24" width="24">
  <desc>
    Brand Google Big Query Streamline Icon: https://streamlinehq.com
  </desc>
  <path d="M17.73 19.875A2.225 2.225 0 0 1 15.782 21H8.499a2.222 2.222 0 0 1 -1.947 -1.158l-4.272 -6.75a2.269 2.269 0 0 1 0 -2.184l4.272 -6.75A2.225 2.225 0 0 1 8.498 3h7.285c0.809 0 1.554 0.443 1.947 1.158l3.98 6.75a2.33 2.33 0 0 1 0 2.25l-3.98 6.75v-0.033z" stroke-width="2"></path>
  <path d="M8 11.5a3.5 3.5 0 1 0 7 0 3.5 3.5 0 1 0 -7 0" stroke-width="2"></path>
  <path d="m14 14 2 2" stroke-width="2"></path>
</svg>